<svg xmlns="http://www.w3.org/2000/svg" viewBox="0 0 60 60"><defs><style>.cls-1{fill:#c7c7c7;}</style></defs><title>containerMesa de trabajo 115</title><g id="Capa_1" data-name="Capa 1"><path class="cls-1" d="M34.93,50.3a7.56,7.56,0,0,0,1.56,4.6H23.71c-3.2,0-7.71-5.75-7.71-8.7V27.42c0-2.85-3.21-7.76-3.21-7.76V12.05H44l0,30.78a7.84,7.84,0,0,0-1.49-.15,7.61,7.61,0,0,0-7.61,7.61ZM45.83,9.7V6.46a.6.6,0,0,0-.6-.6H37.66V4.4a.6.6,0,0,0-.6-.6H23a.6.6,0,0,0-.6.6V5.86H12a.6.6,0,0,0-.6.6V9.7a.6.6,0,0,0,.6.6H45.23a.6.6,0,0,0,.6-.6Zm2.81,40.7a5.81,5.81,0,1,1-5.8-5.8,5.81,5.81,0,0,1,5.8,5.8Zm-2.4,0"/></g></svg>