<svg xmlns="http://www.w3.org/2000/svg" xmlns:xlink="http://www.w3.org/1999/xlink" viewBox="0 0 150.4 156.85"><defs><style>.cls-1,.cls-3,.cls-5{fill-rule:evenodd;}.cls-1{fill:url(#GradientFill_9);}.cls-2{fill:url(#GradientFill_10);}.cls-3{fill:url(#GradientFill_10-2);}.cls-4{fill:url(#GradientFill_10-3);}.cls-5,.cls-6{fill:#fff;}.cls-7{fill:#a63422;}</style><radialGradient id="GradientFill_9" cx="82.03" cy="43.28" r="72.14" gradientTransform="translate(39.21 125.31) rotate(-90) scale(1 0.99)" gradientUnits="userSpaceOnUse"><stop offset="0" stop-color="#f9ab74"/><stop offset="0.59" stop-color="#f48041"/><stop offset="1" stop-color="#f16522"/></radialGradient><linearGradient id="GradientFill_10" x1="75.2" y1="156.85" x2="75.21" y2="149.49" gradientUnits="userSpaceOnUse"><stop offset="0" stop-color="#f16522"/><stop offset="0.21" stop-color="#f16927"/><stop offset="0.45" stop-color="#f37534"/><stop offset="0.7" stop-color="#f5884b"/><stop offset="0.96" stop-color="#f8a36b"/><stop offset="1" stop-color="#f8a770"/></linearGradient><linearGradient id="GradientFill_10-2" x1="75.04" y1="149.48" x2="75.04" y2="144.27" xlink:href="#GradientFill_10"/><linearGradient id="GradientFill_10-3" x1="75.03" y1="67.12" x2="75.05" y2="64.41" xlink:href="#GradientFill_10"/></defs><title>especiales_iconos</title><g id="Capa_2" data-name="Capa 2"><g id="Capa_1-2" data-name="Capa 1"><path class="cls-1" d="M3.53,144.26H146.26V71.37A71.57,71.57,0,0,0,74.89,0h0A71.58,71.58,0,0,0,3.53,71.37Z"/><rect class="cls-2" y="149.48" width="150.4" height="7.37" rx="3.48" ry="3.48"/><path class="cls-3" d="M4.45,144.26H145.63a2.62,2.62,0,0,1,2.61,2.61h0a2.62,2.62,0,0,1-2.61,2.61H4.45a2.62,2.62,0,0,1-2.61-2.61h0A2.62,2.62,0,0,1,4.45,144.26Z"/><rect class="cls-4" x="1.84" y="64.46" width="146.4" height="2.61" rx="1.3" ry="1.3"/><path class="cls-5" d="M31.58,134.17l3.43-.41a1.13,1.13,0,0,0,.41.1c.62,0,1-.28,1-.88a.93.93,0,0,0-.95-.9,1,1,0,0,0-.6.26l-3.29.4v-2.87l4.13-.36a1.62,1.62,0,0,0,.59.14,1,1,0,0,0,1-1c0-.43-.29-.81-1-.81a1.35,1.35,0,0,0-.64.26l-4.1.36c0-.36-.31-.64-.88-.64s-1,.28-1,.62a.47.47,0,0,0,.1.29.77.77,0,0,0-.28.67.75.75,0,0,0,.38.67v2.74a1.17,1.17,0,0,0-.31.81,1,1,0,0,0,.31.77v3.27a1.36,1.36,0,0,0-.22.76.86.86,0,0,0,.9.9,1.36,1.36,0,0,0,1-.31l4.87-.35c.9,0,1.38-.14,1.38-.88a.91.91,0,0,0-1-.81.72.72,0,0,0-.53.26l-4.75.33v-3.37Zm12.77-6.37c-3,0-5.46,2.31-5.46,4.22A1.88,1.88,0,0,0,41,134.1a8.57,8.57,0,0,0,2.39-.4,7.43,7.43,0,0,1,2.31-.41c.71,0,1.08.24,1.08,1a2.3,2.3,0,0,1-.71,1.82,6,6,0,0,1-4,1.76,1.3,1.3,0,0,1-1.29-.71c-.21-.4-.33-1.1-.9-1.1a1,1,0,0,0-1,1,2.79,2.79,0,0,0,3,2.17,7.59,7.59,0,0,0,5.61-2.44,3.84,3.84,0,0,0,1-2.62c0-1.55-1.12-2.29-2.58-2.29a8.53,8.53,0,0,0-2.51.41,8.45,8.45,0,0,1-2,.41c-.45,0-.76-.22-.76-.84,0-1.24,1.65-2.69,3.51-2.69a1.75,1.75,0,0,1,1.41.48c0,.33.29.6,1,.6a.68.68,0,0,0,.77-.72c0-.72-1.38-1.74-3-1.74Zm6,10a.78.78,0,0,0-.21.57c0,.38.31.72.88.72,1,0,1.17-.14,1.17-.76a.81.81,0,0,0-.19-.45v-3.51c3.84-.6,6.46-2.74,6.46-4.63,0-1.12-.81-1.82-2.41-1.82A8,8,0,0,0,52,129v-.21c.14-.55-.19-.88-.84-.88-.34,0-.88.31-.88.74a1.18,1.18,0,0,0,.09.46v.62a1,1,0,0,0-.48.91c0,.46.21.71.48.74v6.33ZM52,130.56a6.57,6.57,0,0,1,3.51-1.19c.83,0,1.22.36,1.22.72,0,1-1.7,2.38-4.73,2.82v-2.36Zm9.57,3.61,3.43-.41a1.13,1.13,0,0,0,.41.1c.62,0,1-.28,1-.88a.93.93,0,0,0-.95-.9,1,1,0,0,0-.6.26l-3.29.4v-2.87l4.13-.36a1.62,1.62,0,0,0,.59.14,1,1,0,0,0,1-1c0-.43-.29-.81-1-.81a1.35,1.35,0,0,0-.64.26l-4.1.36c0-.36-.31-.64-.88-.64s-1,.28-1,.62a.47.47,0,0,0,.1.29.77.77,0,0,0-.28.67.75.75,0,0,0,.38.67v2.74a1.17,1.17,0,0,0-.31.81,1,1,0,0,0,.31.77v3.27a1.36,1.36,0,0,0-.22.76.86.86,0,0,0,.9.9,1.36,1.36,0,0,0,1-.31l4.87-.35c.9,0,1.38-.14,1.38-.88a.91.91,0,0,0-1-.81.72.72,0,0,0-.53.26l-4.75.33v-3.37Zm12.45-6.49c-3.22,0-5.25,4.27-5.25,6.85,0,3.22,1.51,4.75,3.63,4.75a6.34,6.34,0,0,0,4.27-2,1.59,1.59,0,0,0,.46-1.07.82.82,0,0,0-.88-.72c-.74,0-.88.53-.91,1a3.76,3.76,0,0,1-2.72,1.36c-1.07,0-2.19-1-2.19-3.2s1.55-5.54,3.68-5.54c.79,0,1.38.26,1.45.57a.72.72,0,0,0,.81.69.86.86,0,0,0,.91-.91c0-.83-1.31-1.76-3.27-1.76Zm6.64,1.81a1.09,1.09,0,0,0,.28-.69.89.89,0,0,0-.95-.93,1.09,1.09,0,0,0-1.19,1,.58.58,0,0,0,.21.5v8.16a1,1,0,0,0-.26.62c0,.55.43.9,1.07.9a1,1,0,0,0,1.07-.84,1.08,1.08,0,0,0-.22-.6v-8.13Zm8.61,5.34a11.16,11.16,0,0,1,1.14,3c0,.15-.1.34-.1.62s.38.65.91.65a.94.94,0,0,0,1-1c0-.6-.79-2.36-2.07-5a32.8,32.8,0,0,1-1.93-4.29c0-.24.12-.34.12-.64s-.31-.65-.9-.65a1,1,0,0,0-1,1.17,5.15,5.15,0,0,1-.6,1.41l-3,5.9a7.71,7.71,0,0,0-.93,2.27.78.78,0,0,0,.89.79c.79,0,1-.34,1-.72a3.79,3.79,0,0,1,0-.76,12.54,12.54,0,0,1,1.15-2.48l4.25-.28Zm-3.58-1.08,1.62-3.39,1.39,3.18-3,.21Zm9.74-4.46a1.23,1.23,0,0,0,.17-.5.83.83,0,0,0-.93-.91.91.91,0,0,0-1,.95,1.15,1.15,0,0,0,.12.46v8.56a.71.71,0,0,0-.22.59c0,.55.4.81,1,.81a3,3,0,0,0,.74-.12l3.61-.45a1.79,1.79,0,0,0,.5.09c.36,0,.71-.31.71-1a.75.75,0,0,0-.77-.76,1.6,1.6,0,0,0-.6.22l-3.27.41v-8.37Zm7.82,4.89,3.43-.41a1.13,1.13,0,0,0,.41.1c.62,0,1-.28,1-.88a.93.93,0,0,0-.95-.9,1,1,0,0,0-.6.26l-3.29.4v-2.87l4.13-.36a1.62,1.62,0,0,0,.59.14,1,1,0,0,0,1-1c0-.43-.29-.81-1-.81a1.35,1.35,0,0,0-.64.26l-4.1.36c0-.36-.31-.64-.88-.64s-1,.28-1,.62a.47.47,0,0,0,.1.29.77.77,0,0,0-.28.67.75.75,0,0,0,.38.67v2.74a1.17,1.17,0,0,0-.31.81,1,1,0,0,0,.31.77v3.27a1.36,1.36,0,0,0-.22.76.86.86,0,0,0,.9.9,1.36,1.36,0,0,0,1-.31l4.87-.35c.9,0,1.38-.14,1.38-.88a.91.91,0,0,0-1-.81.72.72,0,0,0-.53.26l-4.75.33v-3.37Zm12.77-6.37c-3,0-5.46,2.31-5.46,4.22a1.88,1.88,0,0,0,2.13,2.08,8.57,8.57,0,0,0,2.39-.4,7.43,7.43,0,0,1,2.31-.41c.71,0,1.08.24,1.08,1a2.3,2.3,0,0,1-.71,1.82,6,6,0,0,1-4,1.76,1.3,1.3,0,0,1-1.29-.71c-.21-.4-.33-1.1-.9-1.1a1,1,0,0,0-1,1,2.79,2.79,0,0,0,3,2.17,7.59,7.59,0,0,0,5.61-2.44,3.84,3.84,0,0,0,1-2.62c0-1.55-1.12-2.29-2.58-2.29a8.53,8.53,0,0,0-2.51.41,8.45,8.45,0,0,1-2,.41c-.45,0-.76-.22-.76-.84,0-1.24,1.65-2.69,3.51-2.69a1.75,1.75,0,0,1,1.41.48c0,.33.29.6,1,.6a.68.68,0,0,0,.77-.72C119,128.82,117.65,127.8,116.06,127.8Z"/><circle class="cls-6" cx="74.9" cy="29.11" r="15.38"/><circle class="cls-7" cx="74.89" cy="29.11" r="14.02"/><path class="cls-5" d="M84.39,78.59h4.85v21.1A25.15,25.15,0,0,1,88,108.45a10.72,10.72,0,0,1-4.49,5.26,15.9,15.9,0,0,1-8.52,2A17.44,17.44,0,0,1,66.6,114,10.07,10.07,0,0,1,62,108.85a24.49,24.49,0,0,1-1.39-9.16V78.59H65.4V99.69a20.61,20.61,0,0,0,.88,7,6.65,6.65,0,0,0,3,3.48,10.43,10.43,0,0,0,5.25,1.22q5.31,0,7.57-2.42t2.25-9.3V78.59ZM67.85,76.35v-5.1h4.69v5.1Zm9.29,0v-5.1h4.69v5.1Z"/></g></g></svg>