<svg xmlns="http://www.w3.org/2000/svg" xmlns:xlink="http://www.w3.org/1999/xlink" viewBox="0 0 150.4 156.85"><defs><style>.cls-1,.cls-3,.cls-5{fill-rule:evenodd;}.cls-1{fill:url(#GradientFill_1);}.cls-2{fill:url(#GradientFill_2);}.cls-3{fill:url(#GradientFill_2-2);}.cls-4{fill:url(#GradientFill_3);}.cls-5,.cls-6{fill:#fff;}.cls-7{fill:#003a1e;}</style><radialGradient id="GradientFill_1" cx="79.18" cy="47.61" r="72.13" gradientTransform="translate(32.07 126.78) rotate(-90) scale(1 0.99)" gradientUnits="userSpaceOnUse"><stop offset="0" stop-color="#86c573"/><stop offset="1" stop-color="#1e7239"/></radialGradient><linearGradient id="GradientFill_2" x1="75.2" y1="156.85" x2="75.21" y2="149.49" gradientUnits="userSpaceOnUse"><stop offset="0" stop-color="#1e7239"/><stop offset="0.5" stop-color="#20733a"/><stop offset="0.65" stop-color="#26783e"/><stop offset="0.76" stop-color="#318144"/><stop offset="0.84" stop-color="#428d4d"/><stop offset="0.91" stop-color="#579d58"/><stop offset="0.97" stop-color="#70b166"/><stop offset="1" stop-color="#83bf71"/></linearGradient><linearGradient id="GradientFill_2-2" x1="75.04" y1="149.48" x2="75.04" y2="144.27" xlink:href="#GradientFill_2"/><linearGradient id="GradientFill_3" x1="75.03" y1="67.12" x2="75.05" y2="64.4" gradientUnits="userSpaceOnUse"><stop offset="0" stop-color="#1e7239"/><stop offset="1" stop-color="#83bf71"/></linearGradient></defs><title>no-reciclable_iconos</title><g id="Capa_2" data-name="Capa 2"><g id="Capa_1-2" data-name="Capa 1"><path class="cls-1" d="M3.53,144.26H146.26V71.37A71.58,71.58,0,0,0,74.89,0h0A71.58,71.58,0,0,0,3.53,71.37Z"/><rect class="cls-2" y="149.48" width="150.4" height="7.37" rx="3.48" ry="3.48"/><path class="cls-3" d="M4.45,144.26H145.63a2.62,2.62,0,0,1,2.61,2.61h0a2.62,2.62,0,0,1-2.61,2.61H4.45a2.62,2.62,0,0,1-2.61-2.61h0A2.62,2.62,0,0,1,4.45,144.26Z"/><rect class="cls-4" x="1.84" y="64.46" width="146.4" height="2.61" rx="1.3" ry="1.3"/><path class="cls-5" d="M19,137.67a.83.83,0,0,0-.21.46c0,.62.48.83,1.08.83s.84-.26.84-.77a1,1,0,0,0-.17-.52c0-2.13,0-4.27-.05-6.33h0a14.43,14.43,0,0,0,2.41,3.25,17.53,17.53,0,0,1,2.5,3.44c.21.5.43.93,1,.93.72,0,.95-.16.95-.59a.62.62,0,0,0-.21-.46v-9.12a1,1,0,0,0,.16-.55c0-.43-.55-.65-1-.65a.74.74,0,0,0-.83.77,1.31,1.31,0,0,0,.17.46c0,2.31,0,4.54.05,6.77h0a12.65,12.65,0,0,0-1.86-2.38,18,18,0,0,1-2.38-3.1,4.43,4.43,0,0,1-.64-1.69c0-.43-.21-.65-.93-.65a.87.87,0,0,0-1,.86,1.05,1.05,0,0,0,.14.52v8.52Zm15.53-10.29c-3,0-5.66,4-5.66,7.42,0,1.91.88,4.51,3.67,4.51,3.22,0,5.85-2.81,5.85-6.59s-1.86-5.34-3.86-5.34Zm-.16,1.38c1.41,0,2.29,1.34,2.29,4,0,3-1.95,5.15-3.82,5.15-1.65,0-2.27-1.76-2.27-3.34,0-2.69,2-5.84,3.8-5.84Zm9,8.74a1.28,1.28,0,0,0-.22.57.8.8,0,0,0,.81.9c.6,0,1.2-.19,1.2-.86a1.31,1.31,0,0,0-.16-.53v-3.36l6,4.42a.9.9,0,0,0,.81.45,1,1,0,0,0,1-1,.84.84,0,0,0-1.12-.69l-5.56-4c3.48-.6,5.41-2,5.41-3.75,0-1.14-1-1.79-2.39-1.79a10.06,10.06,0,0,0-4.2,1v-.17a.75.75,0,0,0-.76-1,.9.9,0,0,0-1,.81,1.42,1.42,0,0,0,.12.5v.36c-.29.1-.52.38-.52,1s.19.67.36.67a.24.24,0,0,0,.15-.05v6.64Zm1.64-7.4a9,9,0,0,1,3.75-.93c.69,0,1.12.26,1.12.67,0,1.24-2.2,2.1-4.87,2.67v-2.41Zm10.47,4,3.43-.41a1.12,1.12,0,0,0,.41.1c.62,0,1-.28,1-.88a.93.93,0,0,0-.95-.9,1,1,0,0,0-.6.26l-3.29.4v-2.87l4.13-.36a1.62,1.62,0,0,0,.59.14,1,1,0,0,0,1-1c0-.43-.29-.81-1-.81a1.35,1.35,0,0,0-.64.26l-4.1.36c0-.36-.31-.64-.88-.64s-1,.28-1,.62a.47.47,0,0,0,.1.29.77.77,0,0,0-.28.67.75.75,0,0,0,.38.67v2.74a1.17,1.17,0,0,0-.31.81,1,1,0,0,0,.31.77v3.27a1.36,1.36,0,0,0-.22.76.86.86,0,0,0,.9.9,1.36,1.36,0,0,0,1-.31l4.87-.35c.9,0,1.38-.14,1.38-.88a.91.91,0,0,0-1-.81.72.72,0,0,0-.53.26l-4.75.33v-3.37Zm12.45-6.49c-3.22,0-5.25,4.27-5.25,6.85,0,3.22,1.51,4.75,3.63,4.75a6.34,6.34,0,0,0,4.27-2,1.59,1.59,0,0,0,.46-1.07.82.82,0,0,0-.88-.72c-.74,0-.88.53-.91,1a3.76,3.76,0,0,1-2.72,1.36c-1.07,0-2.19-1-2.19-3.2S65.89,129,68,129c.79,0,1.38.26,1.45.57a.72.72,0,0,0,.81.69.86.86,0,0,0,.91-.91c0-.83-1.31-1.76-3.27-1.76Zm6.64,1.81a1.09,1.09,0,0,0,.28-.69.89.89,0,0,0-.95-.93,1.09,1.09,0,0,0-1.19,1,.58.58,0,0,0,.21.5v8.16a1,1,0,0,0-.26.62c0,.55.43.9,1.07.9a1,1,0,0,0,1.07-.84,1.08,1.08,0,0,0-.22-.6v-8.13Zm7-1.81c-3.22,0-5.25,4.27-5.25,6.85,0,3.22,1.51,4.75,3.63,4.75a6.34,6.34,0,0,0,4.27-2,1.59,1.59,0,0,0,.46-1.07.82.82,0,0,0-.88-.72c-.74,0-.88.53-.91,1a3.76,3.76,0,0,1-2.72,1.36c-1.07,0-2.19-1-2.19-3.2S79.54,129,81.67,129c.79,0,1.38.26,1.45.57a.72.72,0,0,0,.81.69.86.86,0,0,0,.91-.91c0-.83-1.31-1.76-3.27-1.76Zm6.64,1.6a1.23,1.23,0,0,0,.17-.5.83.83,0,0,0-.93-.91.91.91,0,0,0-1,.95,1.15,1.15,0,0,0,.12.46v8.56a.71.71,0,0,0-.22.59c0,.55.4.81,1,.81A3,3,0,0,0,88,139l3.61-.45a1.79,1.79,0,0,0,.5.09c.36,0,.71-.31.71-1a.75.75,0,0,0-.77-.76,1.6,1.6,0,0,0-.6.22l-3.27.41v-8.37Zm12.39,5.54a11.16,11.16,0,0,1,1.14,3c0,.15-.1.34-.1.62s.38.65.91.65a.94.94,0,0,0,1-1c0-.6-.79-2.36-2.07-5a32.82,32.82,0,0,1-1.93-4.29c0-.24.12-.34.12-.64s-.31-.65-.9-.65a1,1,0,0,0-1,1.17,5.15,5.15,0,0,1-.6,1.41l-3,5.9a7.72,7.72,0,0,0-.93,2.27.78.78,0,0,0,.89.79c.79,0,1-.34,1-.72a3.78,3.78,0,0,1,0-.76A12.53,12.53,0,0,1,96.36,135l4.25-.28ZM97,133.64l1.62-3.39,1.39,3.18-3,.21Zm8.09,4a.69.69,0,0,0-.33.64c0,.5.33.77,1,.77,2.24,0,8.38-1.6,8.38-5.32a2.46,2.46,0,0,0-2.69-2.17c-.21,0-.38,0-.59,0v0a2.69,2.69,0,0,0,1.91-2.43c0-.88-1-1.46-2.27-1.46a12.16,12.16,0,0,0-3.8.76c0-.29-.28-.52-.67-.52s-1.12.22-1.12.83a1,1,0,0,0,.15.53v8.37Zm1.65-7.78a8.22,8.22,0,0,1,3.15-.83c1,0,1.24.28,1.24.62,0,1-2.48,2.12-4.39,2.22v-2Zm0,3.86c0-.24.15-.36.62-.53a11.14,11.14,0,0,1,3-.5c1.46,0,2,.72,2,1.27,0,2-3.48,3.34-5.7,3.53v-3.77Zm10.78-4.53a1.23,1.23,0,0,0,.17-.5.83.83,0,0,0-.93-.91.91.91,0,0,0-1,.95,1.15,1.15,0,0,0,.12.46v8.56a.71.71,0,0,0-.22.59c0,.55.4.81,1,.81a3,3,0,0,0,.74-.12l3.61-.45a1.79,1.79,0,0,0,.5.09c.36,0,.71-.31.71-1a.75.75,0,0,0-.77-.76,1.6,1.6,0,0,0-.6.22l-3.27.41v-8.37Zm7.82,4.89,3.43-.41a1.12,1.12,0,0,0,.41.1c.62,0,1-.28,1-.88a.93.93,0,0,0-.95-.9,1,1,0,0,0-.6.26l-3.29.4v-2.87l4.13-.36a1.62,1.62,0,0,0,.59.14,1,1,0,0,0,1-1c0-.43-.29-.81-1-.81a1.35,1.35,0,0,0-.64.26l-4.1.36c0-.36-.31-.64-.88-.64s-1,.28-1,.62a.47.47,0,0,0,.1.29.77.77,0,0,0-.28.67.75.75,0,0,0,.38.67v2.74a1.17,1.17,0,0,0-.31.81,1,1,0,0,0,.31.77v3.27a1.36,1.36,0,0,0-.22.76.86.86,0,0,0,.9.9,1.36,1.36,0,0,0,1-.31l4.87-.35c.9,0,1.38-.14,1.38-.88a.91.91,0,0,0-1-.81.72.72,0,0,0-.53.26l-4.75.33Z"/><circle class="cls-6" cx="76.05" cy="29.11" r="15.38"/><path class="cls-5" d="M84.39,78.59h4.85v21.1A25.15,25.15,0,0,1,88,108.45a10.72,10.72,0,0,1-4.49,5.26,15.9,15.9,0,0,1-8.52,2A17.44,17.44,0,0,1,66.6,114,10.07,10.07,0,0,1,62,108.85a24.49,24.49,0,0,1-1.39-9.16V78.59H65.4V99.69a20.62,20.62,0,0,0,.88,7,6.65,6.65,0,0,0,3,3.48,10.43,10.43,0,0,0,5.25,1.22q5.31,0,7.57-2.42t2.25-9.3V78.59ZM67.85,76.35v-5.1h4.69v5.1Zm9.29,0v-5.1h4.69v5.1Z"/><circle class="cls-7" cx="76.05" cy="29.11" r="14.02"/></g></g></svg>