<svg xmlns="http://www.w3.org/2000/svg" xmlns:xlink="http://www.w3.org/1999/xlink" viewBox="0 0 150.4 156.85"><defs><style>.cls-1,.cls-3,.cls-5{fill-rule:evenodd;}.cls-1{fill:url(#GradientFill_7);}.cls-2{fill:url(#GradientFill_8);}.cls-3{fill:url(#GradientFill_8-2);}.cls-4{fill:url(#GradientFill_8-3);}.cls-5,.cls-6{fill:#fff;}.cls-7{fill:#e4a324;}</style><radialGradient id="GradientFill_7" cx="77.75" cy="25.97" r="72.13" gradientTransform="translate(52.06 103.72) rotate(-90) scale(1 0.99)" gradientUnits="userSpaceOnUse"><stop offset="0" stop-color="#fff"/><stop offset="0.47" stop-color="#f4cf91"/><stop offset="0.83" stop-color="#ecad41"/><stop offset="1" stop-color="#e99f22"/></radialGradient><linearGradient id="GradientFill_8" x1="75.2" y1="156.85" x2="75.21" y2="149.49" gradientUnits="userSpaceOnUse"><stop offset="0" stop-color="#936527"/><stop offset="0.2" stop-color="#986827"/><stop offset="0.42" stop-color="#a57126"/><stop offset="0.66" stop-color="#bc8125"/><stop offset="0.91" stop-color="#dc9623"/><stop offset="1" stop-color="#e99f22"/></linearGradient><linearGradient id="GradientFill_8-2" x1="75.04" y1="149.48" x2="75.04" y2="144.27" xlink:href="#GradientFill_8"/><linearGradient id="GradientFill_8-3" x1="75.03" y1="67.12" x2="75.05" y2="64.41" xlink:href="#GradientFill_8"/></defs><title>organicos_iconos</title><g id="Capa_2" data-name="Capa 2"><g id="Capa_1-2" data-name="Capa 1"><path class="cls-1" d="M3.53,144.26H146.26V71.37A71.57,71.57,0,0,0,74.89,0h0A71.57,71.57,0,0,0,3.53,71.37Z"/><rect class="cls-2" y="149.48" width="150.4" height="7.37" rx="3.48" ry="3.48"/><path class="cls-3" d="M4.45,144.26H145.63a2.62,2.62,0,0,1,2.61,2.61h0a2.62,2.62,0,0,1-2.61,2.61H4.45a2.62,2.62,0,0,1-2.61-2.61h0A2.62,2.62,0,0,1,4.45,144.26Z"/><rect class="cls-4" x="1.84" y="64.46" width="146.4" height="2.61" rx="1.3" ry="1.3"/><path class="cls-5" d="M36.48,127.37c-3,0-5.66,4-5.66,7.42,0,1.91.88,4.51,3.67,4.51,3.22,0,5.85-2.81,5.85-6.59s-1.86-5.34-3.86-5.34Zm-.16,1.38c1.41,0,2.29,1.34,2.29,4,0,3-1.95,5.15-3.82,5.15-1.65,0-2.27-1.76-2.27-3.34,0-2.69,2-5.84,3.8-5.84Zm5.87,8.74a1.27,1.27,0,0,0-.22.57.8.8,0,0,0,.81.9c.6,0,1.21-.19,1.21-.86a1.31,1.31,0,0,0-.16-.53v-3.36l6,4.42a.9.9,0,0,0,.81.45,1,1,0,0,0,1-1,.84.84,0,0,0-1.12-.69l-5.56-4c3.48-.6,5.41-2,5.41-3.75,0-1.14-1-1.79-2.39-1.79a10.06,10.06,0,0,0-4.2,1v-.17a.75.75,0,0,0-.76-1,.9.9,0,0,0-1,.81,1.42,1.42,0,0,0,.12.5v.36c-.29.1-.52.38-.52,1s.19.67.36.67a.24.24,0,0,0,.15-.05v6.64Zm1.64-7.4a9,9,0,0,1,3.75-.93c.69,0,1.12.26,1.12.67,0,1.24-2.2,2.1-4.87,2.67v-2.41Zm15.06-2.67a6.53,6.53,0,0,0-3.56,1.38A7.17,7.17,0,0,0,52,134.64c0,2.7,1.36,4.56,3.86,4.54A6.75,6.75,0,0,0,62.58,133a.7.7,0,0,0-.74-.79,31.38,31.38,0,0,1-3.72.6.73.73,0,0,0-.77.77.64.64,0,0,0,.64.69,18.05,18.05,0,0,0,2.84-.53,4.7,4.7,0,0,1-1.7,2.84A4.89,4.89,0,0,1,56,137.81c-1.27,0-2.34-1-2.34-3.17a5.69,5.69,0,0,1,2.53-4.79,4.48,4.48,0,0,1,2.58-1.05c.88,0,1.34.29,1.45.57.14.45.38.71.83.71a.76.76,0,0,0,.84-.77,2.28,2.28,0,0,0-.88-1.24,3.41,3.41,0,0,0-2.15-.64Zm11.67,7.3a11.16,11.16,0,0,1,1.14,3c0,.15-.1.34-.1.62s.38.65.91.65a.94.94,0,0,0,1-1c0-.6-.79-2.36-2.07-5a32.8,32.8,0,0,1-1.93-4.29c0-.24.12-.34.12-.64s-.31-.65-.9-.65a1,1,0,0,0-1,1.17,5.16,5.16,0,0,1-.6,1.41l-3,5.9a7.71,7.71,0,0,0-.93,2.27.78.78,0,0,0,.89.79c.79,0,1-.34,1-.72a3.78,3.78,0,0,1,0-.76A12.53,12.53,0,0,1,66.31,135l4.25-.28ZM67,133.64l1.62-3.39L70,133.43l-3,.21Zm3.6-8.73a.6.6,0,0,0,.4-.6.64.64,0,0,0-.71-.64c-.38,0-.76.17-.64.6l-1.33,1.34a.57.57,0,0,0-.4.57.6.6,0,0,0,.64.62.71.71,0,0,0,.74-.59l1.29-1.31Zm4.49,12.76a.83.83,0,0,0-.21.46c0,.62.48.83,1.08.83s.84-.26.84-.77a1,1,0,0,0-.17-.52c0-2.13,0-4.27-.05-6.33h0A14.43,14.43,0,0,0,79,134.59a17.52,17.52,0,0,1,2.5,3.44c.21.5.43.93,1,.93.72,0,.95-.16.95-.59a.62.62,0,0,0-.21-.46v-9.12a1,1,0,0,0,.16-.55c0-.43-.55-.65-1-.65a.74.74,0,0,0-.83.77,1.32,1.32,0,0,0,.17.46c0,2.31,0,4.54.05,6.77h0a12.65,12.65,0,0,0-1.86-2.38,18,18,0,0,1-2.38-3.1,4.43,4.43,0,0,1-.64-1.69c0-.43-.21-.65-.93-.65a.87.87,0,0,0-1,.86,1.05,1.05,0,0,0,.14.52v8.52Zm12.19-8.28a1.09,1.09,0,0,0,.28-.69.89.89,0,0,0-.95-.93,1.09,1.09,0,0,0-1.19,1,.58.58,0,0,0,.21.5v8.16a1,1,0,0,0-.26.62c0,.55.43.9,1.07.9a1,1,0,0,0,1.07-.84,1.08,1.08,0,0,0-.22-.6v-8.13Zm7-1.81c-3.22,0-5.25,4.27-5.25,6.85,0,3.22,1.51,4.75,3.63,4.75a6.34,6.34,0,0,0,4.27-2,1.59,1.59,0,0,0,.46-1.07.82.82,0,0,0-.88-.72c-.74,0-.88.53-.91,1a3.76,3.76,0,0,1-2.72,1.36c-1.07,0-2.19-1-2.19-3.2S92.24,129,94.37,129c.79,0,1.38.26,1.45.57a.72.72,0,0,0,.81.69.86.86,0,0,0,.91-.91c0-.83-1.31-1.76-3.27-1.76Zm9.93-.21c-3,0-5.66,4-5.66,7.42,0,1.91.88,4.51,3.67,4.51,3.22,0,5.85-2.81,5.85-6.59s-1.86-5.34-3.86-5.34Zm-.16,1.38c1.41,0,2.29,1.34,2.29,4,0,3-1.95,5.15-3.82,5.15-1.65,0-2.27-1.76-2.27-3.34,0-2.69,2-5.84,3.8-5.84Zm10.74-1.05c-3,0-5.46,2.31-5.46,4.22a1.88,1.88,0,0,0,2.13,2.08,8.57,8.57,0,0,0,2.39-.4,7.44,7.44,0,0,1,2.31-.41c.71,0,1.08.24,1.08,1a2.3,2.3,0,0,1-.71,1.82,6,6,0,0,1-4,1.76,1.3,1.3,0,0,1-1.29-.71c-.21-.4-.33-1.1-.9-1.1a1,1,0,0,0-1,1,2.79,2.79,0,0,0,3,2.17,7.59,7.59,0,0,0,5.61-2.44,3.84,3.84,0,0,0,1-2.62c0-1.55-1.12-2.29-2.58-2.29a8.53,8.53,0,0,0-2.51.41,8.44,8.44,0,0,1-2,.41c-.45,0-.76-.22-.76-.84,0-1.24,1.65-2.69,3.51-2.69a1.75,1.75,0,0,1,1.41.48c0,.33.29.6,1,.6a.68.68,0,0,0,.77-.72C117.75,128.72,116.37,127.7,114.79,127.7Z"/><circle class="cls-6" cx="74.89" cy="29.11" r="15.38"/><circle class="cls-7" cx="74.89" cy="29.11" r="14.02"/><path class="cls-5" d="M84.39,78.59h4.85v21.1A25.15,25.15,0,0,1,88,108.45a10.72,10.72,0,0,1-4.49,5.26,15.9,15.9,0,0,1-8.52,2A17.44,17.44,0,0,1,66.6,114,10.07,10.07,0,0,1,62,108.85a24.49,24.49,0,0,1-1.39-9.16V78.59H65.4V99.69a20.62,20.62,0,0,0,.88,7,6.65,6.65,0,0,0,3,3.48,10.43,10.43,0,0,0,5.25,1.22q5.31,0,7.57-2.42t2.25-9.3V78.59ZM67.85,76.35v-5.1h4.69v5.1Zm9.29,0v-5.1h4.69v5.1Z"/></g></g></svg>