<svg xmlns="http://www.w3.org/2000/svg" xmlns:xlink="http://www.w3.org/1999/xlink" viewBox="0 0 150.4 156.85"><defs><style>.cls-1,.cls-3,.cls-5{fill-rule:evenodd;}.cls-1{fill:url(#GradientFill_11);}.cls-2{fill:url(#GradientFill_12);}.cls-3{fill:url(#GradientFill_12-2);}.cls-4{fill:url(#GradientFill_13);}.cls-5,.cls-6{fill:#fff;}.cls-7{fill:#92191b;}</style><radialGradient id="GradientFill_11" cx="74.9" cy="43.28" r="72.13" gradientTransform="translate(32.07 118.17) rotate(-90) scale(1 0.99)" gradientUnits="userSpaceOnUse"><stop offset="0" stop-color="#f0a1a6"/><stop offset="1" stop-color="#92191b"/></radialGradient><linearGradient id="GradientFill_12" x1="75.2" y1="156.85" x2="75.21" y2="149.49" gradientUnits="userSpaceOnUse"><stop offset="0" stop-color="#92191b"/><stop offset="0.25" stop-color="#92191b"/><stop offset="1" stop-color="#eacdcd"/></linearGradient><linearGradient id="GradientFill_12-2" x1="75.04" y1="149.48" x2="75.04" y2="144.27" xlink:href="#GradientFill_12"/><linearGradient id="GradientFill_13" x1="75.03" y1="67.12" x2="75.05" y2="64.41" gradientUnits="userSpaceOnUse"><stop offset="0" stop-color="#92191b"/><stop offset="0.25" stop-color="#92191b"/><stop offset="1" stop-color="#ef9b9d"/></linearGradient></defs><title>peligrosos_iconos</title><g id="Capa_2" data-name="Capa 2"><g id="Capa_1-2" data-name="Capa 1"><path class="cls-1" d="M3.53,144.26H146.26V71.37A71.58,71.58,0,0,0,74.9,0h0A71.58,71.58,0,0,0,3.53,71.37Z"/><rect class="cls-2" y="149.48" width="150.4" height="7.37" rx="3.48" ry="3.48"/><path class="cls-3" d="M4.45,144.26H145.63a2.62,2.62,0,0,1,2.61,2.61h0a2.62,2.62,0,0,1-2.61,2.61H4.45a2.62,2.62,0,0,1-2.61-2.61h0A2.62,2.62,0,0,1,4.45,144.26Z"/><rect class="cls-4" x="1.84" y="64.46" width="146.4" height="2.61" rx="1.3" ry="1.3"/><path class="cls-5" d="M27.94,139.63a.78.78,0,0,0-.21.57c0,.38.31.72.88.72,1,0,1.17-.14,1.17-.76a.81.81,0,0,0-.19-.45v-3.51c3.84-.6,6.45-2.74,6.45-4.63,0-1.12-.81-1.82-2.41-1.82a8,8,0,0,0-4.06,1.15v-.21c.14-.55-.19-.88-.84-.88-.34,0-.88.31-.88.74a1.18,1.18,0,0,0,.09.46v.62a1,1,0,0,0-.48.91c0,.46.21.71.48.74v6.33Zm1.65-7.21a6.57,6.57,0,0,1,3.51-1.19c.83,0,1.22.36,1.22.72,0,1-1.7,2.38-4.73,2.82v-2.36ZM39.16,136l3.43-.41a1.13,1.13,0,0,0,.41.1c.62,0,1-.28,1-.88A.93.93,0,0,0,43,134a1,1,0,0,0-.6.26l-3.29.4v-2.87l4.13-.36a1.62,1.62,0,0,0,.59.14,1,1,0,0,0,1-1c0-.43-.29-.81-1-.81a1.35,1.35,0,0,0-.64.26l-4.1.36c0-.36-.31-.64-.88-.64s-1,.28-1,.62a.47.47,0,0,0,.1.29.77.77,0,0,0-.28.67.75.75,0,0,0,.38.67v2.74a1.17,1.17,0,0,0-.31.81,1,1,0,0,0,.31.77v3.27a1.36,1.36,0,0,0-.22.76.86.86,0,0,0,.9.9,1.36,1.36,0,0,0,1-.31l4.87-.35c.9,0,1.38-.14,1.38-.88a.91.91,0,0,0-1-.81.72.72,0,0,0-.53.26l-4.75.33V136Zm9.54-4.89a1.23,1.23,0,0,0,.17-.5.83.83,0,0,0-.93-.91.91.91,0,0,0-1,.95,1.15,1.15,0,0,0,.12.46v8.56a.71.71,0,0,0-.22.59c0,.55.4.81,1,.81a3,3,0,0,0,.74-.12l3.61-.45a1.79,1.79,0,0,0,.5.09c.36,0,.71-.31.71-1a.75.75,0,0,0-.77-.76,1.6,1.6,0,0,0-.6.22l-3.27.41v-8.37Zm7.8.21a1.09,1.09,0,0,0,.28-.69.89.89,0,0,0-.95-.93,1.09,1.09,0,0,0-1.19,1,.58.58,0,0,0,.21.5v8.16a1,1,0,0,0-.26.62c0,.55.43.9,1.07.9a1,1,0,0,0,1.07-.84,1.08,1.08,0,0,0-.22-.6v-8.13Zm8.62-2a6.53,6.53,0,0,0-3.56,1.38,7.17,7.17,0,0,0-3.32,5.84c0,2.7,1.36,4.56,3.86,4.54A6.75,6.75,0,0,0,68.8,135a.7.7,0,0,0-.74-.79,31.38,31.38,0,0,1-3.72.6.73.73,0,0,0-.77.77.64.64,0,0,0,.64.69,18,18,0,0,0,2.84-.53,4.7,4.7,0,0,1-1.7,2.84,4.89,4.89,0,0,1-3.08,1.21c-1.27,0-2.34-1-2.34-3.17a5.69,5.69,0,0,1,2.53-4.79A4.48,4.48,0,0,1,65,130.77c.88,0,1.34.29,1.45.57.14.45.38.71.83.71a.76.76,0,0,0,.84-.77,2.28,2.28,0,0,0-.88-1.24,3.41,3.41,0,0,0-2.15-.64Zm5.47,10.07a1.28,1.28,0,0,0-.22.57.8.8,0,0,0,.81.9c.6,0,1.2-.19,1.2-.86a1.31,1.31,0,0,0-.16-.53v-3.36l6,4.42a.9.9,0,0,0,.81.45,1,1,0,0,0,1-1,.84.84,0,0,0-1.12-.69l-5.56-4c3.48-.6,5.41-2,5.41-3.75,0-1.14-1-1.79-2.39-1.79a10.06,10.06,0,0,0-4.2,1v-.17a.75.75,0,0,0-.76-1,.9.9,0,0,0-1,.81,1.42,1.42,0,0,0,.12.5v.36c-.29.1-.52.38-.52,1s.19.67.36.67a.24.24,0,0,0,.15-.05v6.64Zm1.64-7.4a9,9,0,0,1,3.75-.93c.69,0,1.12.26,1.12.67,0,1.24-2.2,2.1-4.87,2.67v-2.41ZM86,129.34c-3,0-5.66,4-5.66,7.42,0,1.91.88,4.51,3.67,4.51,3.22,0,5.85-2.81,5.85-6.59S88,129.34,86,129.34Zm-.16,1.38c1.41,0,2.29,1.34,2.29,4,0,3-1.95,5.15-3.82,5.15-1.65,0-2.27-1.76-2.27-3.34,0-2.69,2-5.84,3.8-5.84Zm10.74-1.05c-3,0-5.46,2.31-5.46,4.22A1.88,1.88,0,0,0,93.28,136a8.57,8.57,0,0,0,2.39-.4,7.43,7.43,0,0,1,2.31-.41c.71,0,1.08.24,1.08,1a2.3,2.3,0,0,1-.71,1.82,6,6,0,0,1-4,1.76A1.3,1.3,0,0,1,93,139c-.21-.4-.33-1.1-.9-1.1a1,1,0,0,0-1,1,2.79,2.79,0,0,0,3,2.17,7.59,7.59,0,0,0,5.61-2.44,3.84,3.84,0,0,0,1-2.62c0-1.55-1.12-2.29-2.58-2.29a8.53,8.53,0,0,0-2.51.41,8.45,8.45,0,0,1-2,.41c-.45,0-.76-.22-.76-.84,0-1.24,1.65-2.69,3.51-2.69a1.75,1.75,0,0,1,1.41.48c0,.33.29.6,1,.6a.68.68,0,0,0,.77-.72c0-.72-1.38-1.74-3-1.74Zm11-.33c-3,0-5.66,4-5.66,7.42,0,1.91.88,4.51,3.67,4.51,3.22,0,5.85-2.81,5.85-6.59s-1.86-5.34-3.86-5.34Zm-.15,1.38c1.41,0,2.29,1.34,2.29,4,0,3-1.95,5.15-3.82,5.15-1.65,0-2.27-1.76-2.27-3.34,0-2.69,2-5.84,3.8-5.84Zm10.74-1.05c-3,0-5.46,2.31-5.46,4.22a1.88,1.88,0,0,0,2.13,2.08,8.57,8.57,0,0,0,2.39-.4,7.43,7.43,0,0,1,2.31-.41c.71,0,1.08.24,1.08,1a2.3,2.3,0,0,1-.71,1.82,6,6,0,0,1-4,1.76,1.3,1.3,0,0,1-1.29-.71c-.21-.4-.33-1.1-.9-1.1a1,1,0,0,0-1,1,2.79,2.79,0,0,0,3,2.17,7.59,7.59,0,0,0,5.61-2.44,3.84,3.84,0,0,0,1-2.62c0-1.55-1.12-2.29-2.58-2.29a8.53,8.53,0,0,0-2.51.41,8.45,8.45,0,0,1-2,.41c-.45,0-.76-.22-.76-.84,0-1.24,1.65-2.69,3.51-2.69a1.75,1.75,0,0,1,1.41.48c0,.33.29.6,1,.6a.68.68,0,0,0,.77-.72C121.11,130.68,119.74,129.67,118.15,129.67Z"/><circle class="cls-6" cx="74.9" cy="31.08" r="15.38"/><circle class="cls-7" cx="74.9" cy="31.08" r="14.02"/><path class="cls-5" d="M84.39,80.56h4.85v21.1A25.15,25.15,0,0,1,88,110.41a10.72,10.72,0,0,1-4.49,5.26,15.9,15.9,0,0,1-8.52,2,17.44,17.44,0,0,1-8.38-1.77A10.07,10.07,0,0,1,62,110.82a24.49,24.49,0,0,1-1.39-9.16V80.56H65.4v21.09a20.62,20.62,0,0,0,.88,7,6.65,6.65,0,0,0,3,3.48,10.43,10.43,0,0,0,5.25,1.22q5.31,0,7.57-2.42t2.25-9.3V80.56ZM67.85,78.31v-5.1h4.69v5.1Zm9.29,0v-5.1h4.69v5.1Z"/></g></g></svg>