<svg xmlns="http://www.w3.org/2000/svg" xmlns:xlink="http://www.w3.org/1999/xlink" viewBox="0 0 150.4 156.85"><defs><style>.cls-1,.cls-3,.cls-5{fill-rule:evenodd;}.cls-1{fill:url(#GradientFill_14);}.cls-2{fill:url(#GradientFill_15);}.cls-3{fill:url(#GradientFill_15-2);}.cls-4{fill:url(#GradientFill_15-3);}.cls-5,.cls-6{fill:#fff;}.cls-7{fill:#31210f;}</style><radialGradient id="GradientFill_14" cx="82.03" cy="43.28" r="72.14" gradientTransform="translate(39.21 125.31) rotate(-90) scale(1 0.99)" gradientUnits="userSpaceOnUse"><stop offset="0" stop-color="#aa9790"/><stop offset="0.13" stop-color="#9b877e"/><stop offset="0.73" stop-color="#5c442f"/><stop offset="1" stop-color="#432910"/></radialGradient><linearGradient id="GradientFill_15" x1="75.2" y1="156.85" x2="75.21" y2="149.49" gradientUnits="userSpaceOnUse"><stop offset="0" stop-color="#473212"/><stop offset="0.23" stop-color="#4b3517"/><stop offset="0.5" stop-color="#553f24"/><stop offset="0.78" stop-color="#674f3b"/><stop offset="1" stop-color="#795f52"/></linearGradient><linearGradient id="GradientFill_15-2" x1="75.04" y1="149.48" x2="75.04" y2="144.27" xlink:href="#GradientFill_15"/><linearGradient id="GradientFill_15-3" x1="75.03" y1="67.12" x2="75.05" y2="64.41" xlink:href="#GradientFill_15"/></defs><title>rcd_iconos</title><g id="Capa_2" data-name="Capa 2"><g id="Capa_1-2" data-name="Capa 1"><path class="cls-1" d="M3.53,144.26H146.26V71.37A71.58,71.58,0,0,0,74.89,0h0A71.57,71.57,0,0,0,3.53,71.37Z"/><rect class="cls-2" y="149.48" width="150.4" height="7.37" rx="3.48" ry="3.48"/><path class="cls-3" d="M4.45,144.26H145.63a2.62,2.62,0,0,1,2.61,2.61h0a2.62,2.62,0,0,1-2.61,2.61H4.45a2.62,2.62,0,0,1-2.61-2.61h0A2.62,2.62,0,0,1,4.45,144.26Z"/><rect class="cls-4" x="1.84" y="64.46" width="146.4" height="2.61" rx="1.3" ry="1.3"/><path class="cls-5" d="M60.68,137.6a1.28,1.28,0,0,0-.22.57.8.8,0,0,0,.81.9c.6,0,1.2-.19,1.2-.86a1.31,1.31,0,0,0-.16-.53v-3.36l6,4.42a.9.9,0,0,0,.81.45,1,1,0,0,0,1-1,.84.84,0,0,0-1.12-.69l-5.56-4c3.48-.6,5.41-2,5.41-3.75,0-1.14-1-1.79-2.39-1.79a10.06,10.06,0,0,0-4.2,1v-.17a.75.75,0,0,0-.76-1,.9.9,0,0,0-1,.81,1.42,1.42,0,0,0,.12.5v.36c-.29.1-.52.38-.52,1s.19.67.36.67a.24.24,0,0,0,.15-.05v6.64Zm1.64-7.4a9,9,0,0,1,3.75-.93c.69,0,1.12.26,1.12.67,0,1.24-2.2,2.1-4.87,2.67V130.2Zm13.44-2.51c-3.22,0-5.25,4.27-5.25,6.85,0,3.22,1.51,4.75,3.63,4.75a6.34,6.34,0,0,0,4.27-2,1.59,1.59,0,0,0,.46-1.07.82.82,0,0,0-.88-.72c-.74,0-.88.53-.91,1a3.76,3.76,0,0,1-2.72,1.36c-1.07,0-2.19-1-2.19-3.2s1.55-5.54,3.68-5.54c.79,0,1.38.26,1.45.57a.72.72,0,0,0,.81.69.86.86,0,0,0,.91-.91c0-.83-1.31-1.76-3.27-1.76Zm4.91,10.09a1,1,0,0,0-.22.71c0,.48.34.74,1,.74a9.73,9.73,0,0,0,6.06-2.5,7,7,0,0,0,2.08-5.08,4,4,0,0,0-3.77-3.89,7.69,7.69,0,0,0-3.55.81c.09-.36-.1-.79-.72-.79s-1,.43-1,.74a1.09,1.09,0,0,0,.14.57v8.69ZM82.32,130a6.39,6.39,0,0,1,3.13-.9,2.61,2.61,0,0,1,2.43,2.65,5.73,5.73,0,0,1-1.5,3.94,6.41,6.41,0,0,1-4.06,1.89Z"/><circle class="cls-6" cx="74.9" cy="29.11" r="15.38"/><circle class="cls-7" cx="74.9" cy="29.11" r="14.02"/><path class="cls-5" d="M84.39,78.59h4.85v21.1A25.15,25.15,0,0,1,88,108.45a10.72,10.72,0,0,1-4.49,5.26,15.9,15.9,0,0,1-8.52,2A17.44,17.44,0,0,1,66.6,114,10.07,10.07,0,0,1,62,108.85a24.49,24.49,0,0,1-1.39-9.16V78.59H65.4V99.69a20.62,20.62,0,0,0,.88,7,6.65,6.65,0,0,0,3,3.48,10.43,10.43,0,0,0,5.25,1.22q5.31,0,7.57-2.42t2.25-9.3V78.59ZM67.85,76.35v-5.1h4.69v5.1Zm9.29,0v-5.1h4.69v5.1Z"/></g></g></svg>