<svg xmlns="http://www.w3.org/2000/svg" xmlns:xlink="http://www.w3.org/1999/xlink" viewBox="0 0 150.4 156.85"><defs><style>.cls-1,.cls-3,.cls-5{fill-rule:evenodd;}.cls-1{fill:url(#GradientFill_18);}.cls-2{fill:url(#GradientFill_19);}.cls-3{fill:url(#GradientFill_19-2);}.cls-4{fill:url(#GradientFill_20);}.cls-5,.cls-6{fill:#fff;}.cls-7{fill:#92191b;}</style><radialGradient id="GradientFill_18" cx="76.32" cy="43.28" r="72.13" gradientTransform="translate(33.5 119.6) rotate(-90) scale(1 0.99)" gradientUnits="userSpaceOnUse"><stop offset="0" stop-color="#f0a1a6"/><stop offset="1" stop-color="#d51f26"/></radialGradient><linearGradient id="GradientFill_19" x1="75.2" y1="156.85" x2="75.21" y2="149.49" gradientUnits="userSpaceOnUse"><stop offset="0" stop-color="#ec1c24"/><stop offset="0.68" stop-color="#ec1c24"/><stop offset="1" stop-color="#eacdcd"/></linearGradient><linearGradient id="GradientFill_19-2" x1="75.04" y1="149.48" x2="75.04" y2="144.27" xlink:href="#GradientFill_19"/><linearGradient id="GradientFill_20" x1="75.03" y1="67.12" x2="75.05" y2="64.41" gradientUnits="userSpaceOnUse"><stop offset="0" stop-color="#ec1c24"/><stop offset="1" stop-color="#ef9b9d"/></linearGradient></defs><title>risgo-biologico_iconos</title><g id="Capa_2" data-name="Capa 2"><g id="Capa_1-2" data-name="Capa 1"><path class="cls-1" d="M3.53,144.26H146.26V71.37A71.58,71.58,0,0,0,74.89,0h0A71.58,71.58,0,0,0,3.53,71.37Z"/><rect class="cls-2" y="149.48" width="150.4" height="7.37" rx="3.48" ry="3.48"/><path class="cls-3" d="M4.45,144.26H145.63a2.62,2.62,0,0,1,2.61,2.61h0a2.62,2.62,0,0,1-2.61,2.61H4.45a2.62,2.62,0,0,1-2.61-2.61h0A2.62,2.62,0,0,1,4.45,144.26Z"/><rect class="cls-4" x="1.84" y="64.46" width="146.4" height="2.61" rx="1.3" ry="1.3"/><path class="cls-5" d="M8.83,139.46a1.3,1.3,0,0,0-.22.57c0,.46.23.9.78.9s1.16-.19,1.16-.86a1.34,1.34,0,0,0-.15-.53v-3.36l5.79,4.42A.86.86,0,0,0,17,141a1,1,0,0,0,1-1,.81.81,0,0,0-1.08-.69l-5.35-4c3.34-.6,5.2-2,5.2-3.75,0-1.14-1-1.79-2.3-1.79a9.36,9.36,0,0,0-4,1v-.17a.74.74,0,0,0-.73-1,.88.88,0,0,0-1,.81,1.46,1.46,0,0,0,.12.5v.36c-.28.1-.5.38-.5,1s.18.67.35.67a.22.22,0,0,0,.15-.05v6.64Zm1.57-7.4a8.43,8.43,0,0,1,3.61-.93c.66,0,1.08.26,1.08.67,0,1.24-2.12,2.1-4.68,2.67v-2.41Zm10-.71a1.12,1.12,0,0,0,.27-.69.87.87,0,0,0-.91-.93,1.06,1.06,0,0,0-1.14,1,.59.59,0,0,0,.2.5v8.16a1,1,0,0,0-.25.62.91.91,0,0,0,1,.9,1,1,0,0,0,1-.84,1.1,1.1,0,0,0-.22-.6v-8.13ZM24.32,136l3.29-.41a1,1,0,0,0,.4.1c.6,0,1-.28,1-.88a.92.92,0,0,0-.91-.9,1,1,0,0,0-.58.26l-3.16.4v-2.87l4-.36a1.51,1.51,0,0,0,.56.14.93.93,0,0,0,.94-1c0-.43-.28-.81-.93-.81a1.27,1.27,0,0,0-.61.26l-3.94.36c0-.36-.3-.64-.84-.64s-.94.28-.94.62a.48.48,0,0,0,.1.29.79.79,0,0,0-.26.67.76.76,0,0,0,.36.67v2.74a1.2,1.2,0,0,0-.3.81,1,1,0,0,0,.3.77v3.27a1.39,1.39,0,0,0-.22.76.84.84,0,0,0,.86.9,1.28,1.28,0,0,0,.94-.31l4.68-.35c.86,0,1.32-.14,1.32-.88a.89.89,0,0,0-.93-.81.69.69,0,0,0-.51.26l-4.57.33V136Zm12.28-6.37c-2.86,0-5.25,2.31-5.25,4.22A1.84,1.84,0,0,0,33.41,136a8,8,0,0,0,2.3-.4,6.9,6.9,0,0,1,2.22-.41c.68,0,1,.24,1,1a2.35,2.35,0,0,1-.68,1.82,5.63,5.63,0,0,1-3.87,1.76,1.24,1.24,0,0,1-1.24-.71c-.2-.4-.31-1.1-.86-1.1a.94.94,0,0,0-.93,1,2.71,2.71,0,0,0,2.91,2.17,7.17,7.17,0,0,0,5.4-2.44,3.93,3.93,0,0,0,.93-2.62,2.21,2.21,0,0,0-2.48-2.29,7.92,7.92,0,0,0-2.42.41,7.84,7.84,0,0,1-2,.41c-.43,0-.73-.22-.73-.84,0-1.24,1.59-2.69,3.38-2.69a1.65,1.65,0,0,1,1.36.48c0,.33.28.6.94.6a.67.67,0,0,0,.74-.72c0-.72-1.32-1.74-2.85-1.74Zm11.77-.28a6.13,6.13,0,0,0-3.43,1.38,7.23,7.23,0,0,0-3.19,5.84c0,2.7,1.31,4.56,3.71,4.54,4.85,0,6.45-4.65,6.45-6.16,0-.46-.23-.79-.71-.79a29.1,29.1,0,0,1-3.57.6.72.72,0,0,0-.74.77.63.63,0,0,0,.61.69,16.74,16.74,0,0,0,2.73-.53,4.74,4.74,0,0,1-1.64,2.84,4.6,4.6,0,0,1-3,1.21c-1.22,0-2.25-1-2.25-3.17a5.75,5.75,0,0,1,2.43-4.79,4.21,4.21,0,0,1,2.48-1.05c.84,0,1.29.29,1.39.57.13.45.36.71.79.71a.74.74,0,0,0,.81-.77,2.28,2.28,0,0,0-.84-1.24,3.19,3.19,0,0,0-2.07-.64Zm10-.05c-2.9,0-5.44,4-5.44,7.42,0,1.91.84,4.51,3.52,4.51,3.09,0,5.63-2.81,5.63-6.59s-1.79-5.34-3.71-5.34Zm-.15,1.38c1.36,0,2.2,1.34,2.2,4,0,3-1.87,5.15-3.67,5.15-1.59,0-2.18-1.76-2.18-3.34,0-2.69,1.92-5.84,3.66-5.84Zm8.61,8.88a.69.69,0,0,0-.31.64c0,.5.31.77,1,.77,2.15,0,8.06-1.6,8.06-5.32A2.39,2.39,0,0,0,73,133.52c-.2,0-.36,0-.56,0v0a2.68,2.68,0,0,0,1.84-2.43c0-.88-.93-1.46-2.18-1.46a11.29,11.29,0,0,0-3.66.76c0-.29-.26-.52-.65-.52s-1.08.22-1.08.83a1,1,0,0,0,.15.53v8.37Zm1.59-7.78a7.66,7.66,0,0,1,3-.83c1,0,1.19.28,1.19.62,0,1-2.38,2.12-4.22,2.22v-2Zm0,3.86c0-.24.15-.36.6-.53a10.34,10.34,0,0,1,2.91-.5c1.41,0,2,.72,2,1.27,0,2-3.34,3.34-5.48,3.53v-3.77Zm10.36-4.32a1.12,1.12,0,0,0,.26-.69.87.87,0,0,0-.91-.93,1.06,1.06,0,0,0-1.14,1,.59.59,0,0,0,.2.5v8.16a1,1,0,0,0-.25.62.91.91,0,0,0,1,.9,1,1,0,0,0,1-.84,1.1,1.1,0,0,0-.21-.6v-8.13Zm7.07-2c-2.9,0-5.44,4-5.44,7.42,0,1.91.84,4.51,3.53,4.51,3.09,0,5.63-2.81,5.63-6.59s-1.79-5.34-3.71-5.34Zm-.15,1.38c1.36,0,2.2,1.34,2.2,4,0,3-1.87,5.15-3.67,5.15-1.59,0-2.18-1.76-2.18-3.34,0-2.69,1.92-5.84,3.66-5.84Zm7.18.43a1.27,1.27,0,0,0,.17-.5.81.81,0,0,0-.89-.91.89.89,0,0,0-1,.95,1.19,1.19,0,0,0,.12.46v8.56a.73.73,0,0,0-.22.59c0,.55.38.81.93.81a2.81,2.81,0,0,0,.71-.12l3.48-.45a1.66,1.66,0,0,0,.48.09c.35,0,.68-.31.68-1a.73.73,0,0,0-.74-.76,1.51,1.51,0,0,0-.58.22l-3.14.41v-8.37Zm10.31-1.81c-2.9,0-5.44,4-5.44,7.42,0,1.91.84,4.51,3.53,4.51,3.09,0,5.63-2.81,5.63-6.59s-1.79-5.34-3.71-5.34Zm-.15,1.38c1.36,0,2.2,1.34,2.2,4,0,3-1.87,5.15-3.67,5.15-1.59,0-2.18-1.76-2.18-3.34,0-2.69,1.92-5.84,3.66-5.84Zm1.74-4.08a.56.56,0,0,0,.38-.58.63.63,0,0,0-.68-.64c-.35,0-.73.17-.61.59l-1.26,1.36a.57.57,0,0,0-.4.57.59.59,0,0,0,.63.62.71.71,0,0,0,.71-.59l1.22-1.33Zm9.88,2.75a6.14,6.14,0,0,0-3.43,1.38A7.22,7.22,0,0,0,108,136.6c0,2.7,1.31,4.56,3.71,4.54,4.85,0,6.45-4.65,6.45-6.16,0-.46-.23-.79-.71-.79a29.11,29.11,0,0,1-3.57.6.72.72,0,0,0-.74.77.63.63,0,0,0,.61.69,16.74,16.74,0,0,0,2.73-.53,4.74,4.74,0,0,1-1.64,2.84,4.6,4.6,0,0,1-3,1.21c-1.22,0-2.25-1-2.25-3.17a5.75,5.75,0,0,1,2.43-4.79,4.21,4.21,0,0,1,2.48-1.05c.84,0,1.29.29,1.39.57.13.45.36.71.79.71a.74.74,0,0,0,.81-.77,2.28,2.28,0,0,0-.84-1.24,3.19,3.19,0,0,0-2.07-.64Zm6.8,2a1.12,1.12,0,0,0,.26-.69.87.87,0,0,0-.91-.93,1.06,1.06,0,0,0-1.14,1,.59.59,0,0,0,.2.5v8.16a1,1,0,0,0-.25.62.91.91,0,0,0,1,.9,1,1,0,0,0,1-.84,1.1,1.1,0,0,0-.21-.6v-8.13Zm6.74-1.81c-3.09,0-5,4.27-5,6.85,0,3.22,1.46,4.75,3.49,4.75a6,6,0,0,0,4.1-2,1.62,1.62,0,0,0,.45-1.07.8.8,0,0,0-.84-.72c-.71,0-.84.53-.88,1a3.57,3.57,0,0,1-2.61,1.36c-1,0-2.1-1-2.1-3.2s1.49-5.54,3.54-5.54c.76,0,1.32.26,1.39.57a.7.7,0,0,0,.78.69.84.84,0,0,0,.88-.91c0-.83-1.26-1.76-3.14-1.76Zm9.55-.21c-2.9,0-5.44,4-5.44,7.42,0,1.91.84,4.51,3.52,4.51,3.09,0,5.63-2.81,5.63-6.59s-1.79-5.34-3.71-5.34Zm-.15,1.38c1.36,0,2.2,1.34,2.2,4,0,3-1.87,5.15-3.67,5.15-1.59,0-2.18-1.76-2.18-3.34C133.94,133.87,135.86,130.72,137.6,130.72Z"/><circle class="cls-6" cx="74.9" cy="31.08" r="15.38"/><circle class="cls-7" cx="74.89" cy="31.08" r="14.02"/><path class="cls-5" d="M84.39,80.56h4.85v21.1A25.15,25.15,0,0,1,88,110.41a10.72,10.72,0,0,1-4.49,5.26,15.9,15.9,0,0,1-8.52,2,17.44,17.44,0,0,1-8.38-1.77A10.07,10.07,0,0,1,62,110.82a24.49,24.49,0,0,1-1.39-9.16V80.56H65.4v21.09a20.61,20.61,0,0,0,.88,7,6.65,6.65,0,0,0,3,3.48,10.43,10.43,0,0,0,5.25,1.22q5.31,0,7.57-2.42t2.25-9.3V80.56ZM67.85,78.31v-5.1h4.69v5.1Zm9.29,0v-5.1h4.69v5.1Z"/></g></g></svg>